<svg width="26" height="22" viewBox="0 0 26 22" fill="none" xmlns="http://www.w3.org/2000/svg">
<path d="M13 15.4445C14.9882 15.4445 16.6 13.9521 16.6 12.1111C16.6 10.2702 14.9882 8.7778 13 8.7778C11.0118 8.7778 9.40002 10.2702 9.40002 12.1111C9.40002 13.9521 11.0118 15.4445 13 15.4445Z" stroke="#9EA2A6" stroke-width="1.5"/>
<path d="M10.3336 21H15.6664C19.4116 21 21.2848 21 22.63 20.1833C23.2104 19.8311 23.7103 19.3765 24.1012 18.8456C25 17.6233 25 15.92 25 12.5156C25 9.11003 25 7.40781 24.1012 6.18559C23.7104 5.65461 23.2105 5.20004 22.63 4.84782C21.766 4.32227 20.6836 4.13449 19.0264 4.06782C18.2356 4.06782 17.5552 3.52338 17.4004 2.81783C17.2821 2.30101 16.9747 1.83787 16.5302 1.50666C16.0857 1.17546 15.5313 0.996506 14.9608 1.00005H11.0392C9.8536 1.00005 8.8324 1.76116 8.5996 2.81783C8.4448 3.52338 7.7644 4.06782 6.9736 4.06782C5.3176 4.13449 4.2352 4.32338 3.37 4.84782C2.78994 5.20011 2.29045 5.65468 1.9 6.18559C1 7.40781 1 9.11003 1 12.5156C1 15.92 1 17.6222 1.8988 18.8456C2.2876 19.3744 2.7868 19.8289 3.37 20.1833C4.7152 21 6.5884 21 10.3336 21Z" stroke="#9EA2A6" stroke-width="1.5"/>
<path d="M21.4 8.7778H20.2" stroke="#9EA2A6" stroke-width="1.5" stroke-linecap="round"/>
</svg>
