<svg width="90" height="90" viewBox="0 0 90 90" fill="none" xmlns="http://www.w3.org/2000/svg">
<path d="M45 65.6252C49.6875 65.6252 53.6725 63.9852 56.955 60.7052C60.2375 57.4252 61.8775 53.4402 61.875 48.7502C61.8725 44.0602 60.2325 40.0765 56.955 36.799C53.6775 33.5215 49.6925 31.8802 45 31.8752C40.3075 31.8702 36.3238 33.5115 33.0488 36.799C29.7738 40.0865 28.1325 44.0702 28.125 48.7502C28.1175 53.4302 29.7588 57.4152 33.0488 60.7052C36.3388 63.9952 40.3225 65.6352 45 65.6252ZM45 58.1252C42.375 58.1252 40.1563 57.219 38.3438 55.4065C36.5313 53.594 35.625 51.3752 35.625 48.7502C35.625 46.1252 36.5313 43.9065 38.3438 42.094C40.1563 40.2815 42.375 39.3752 45 39.3752C47.625 39.3752 49.8438 40.2815 51.6563 42.094C53.4688 43.9065 54.375 46.1252 54.375 48.7502C54.375 51.3752 53.4688 53.594 51.6563 55.4065C49.8438 57.219 47.625 58.1252 45 58.1252ZM15 78.7502C12.9375 78.7502 11.1725 78.0165 9.705 76.549C8.2375 75.0815 7.5025 73.3152 7.5 71.2502V26.2502C7.5 24.1877 8.235 22.4227 9.705 20.9552C11.175 19.4877 12.94 18.7527 15 18.7502H26.8125L33.75 11.2502H56.25L63.1875 18.7502H75C77.0625 18.7502 78.8288 19.4852 80.2988 20.9552C81.7688 22.4252 82.5025 24.1902 82.5 26.2502V71.2502C82.5 73.3127 81.7663 75.079 80.2988 76.549C78.8313 78.019 77.065 78.7527 75 78.7502H15Z" fill="#284243"/>
</svg>
