<svg width="24" height="24" viewBox="0 0 24 24" fill="none" xmlns="http://www.w3.org/2000/svg">
<g clip-path="url(#clip0_1027_340)">
<path d="M20.5696 19.0752L20.0096 18.5056L19.6816 18.8256L19.7936 19.2688L20.5696 19.0752ZM21.6 23.2L21.4064 23.976C21.5403 24.0094 21.6806 24.0075 21.8136 23.9706C21.9466 23.9337 22.0678 23.863 22.1654 23.7654C22.263 23.6678 22.3337 23.5466 22.3706 23.4136C22.4075 23.2806 22.4094 23.1403 22.376 23.0064L21.6 23.2ZM15.2 21.6L14.6336 21.0336L13.6352 22.0336L15.0064 22.376L15.2 21.6ZM15.24 21.56L15.8048 22.1264C15.9215 22.0101 15.9995 21.8606 16.0281 21.6983C16.0566 21.536 16.0344 21.3688 15.9644 21.2197C15.8943 21.0705 15.7799 20.9466 15.6368 20.8649C15.4937 20.7832 15.3289 20.7477 15.1648 20.7632L15.24 21.56ZM11.2 0V4H12.8V0H11.2ZM14.4 3.2H9.6V4.8H14.4V3.2ZM24 12.8C24 10.2539 22.9886 7.81212 21.1882 6.01177C19.3879 4.21143 16.9461 3.2 14.4 3.2V4.8C15.4506 4.8 16.4909 5.00693 17.4615 5.40896C18.4321 5.811 19.314 6.40028 20.0569 7.14315C20.7997 7.88601 21.389 8.76793 21.791 9.73853C22.1931 10.7091 22.4 11.7494 22.4 12.8H24ZM21.1296 19.6464C22.04 18.7536 22.7629 17.688 23.2558 16.512C23.7487 15.3361 24.0017 14.0751 24 12.8H22.4C22.4018 13.8627 22.1911 14.9134 21.7803 15.8935C21.3695 16.8736 20.7685 17.7617 20.0096 18.5056L21.1296 19.6464ZM22.3776 23.0064L21.344 18.88L19.792 19.2672L20.8224 23.392L22.3776 23.0064ZM15.0064 22.376L21.4064 23.976L21.7936 22.424L15.3936 20.824L15.0064 22.376ZM14.6736 20.9952L14.6336 21.0336L15.7664 22.1648L15.8048 22.1264L14.6736 20.9952ZM14.4 22.4C14.7088 22.4 15.0144 22.384 15.3152 22.3568L15.1648 20.7632C14.9106 20.7875 14.6554 20.7998 14.4 20.8V22.4ZM9.6 22.4H14.4V20.8H9.6V22.4ZM0 12.8C0 15.3461 1.01143 17.7879 2.81177 19.5882C4.61212 21.3886 7.05392 22.4 9.6 22.4V20.8C8.54943 20.8 7.50914 20.5931 6.53853 20.191C5.56793 19.789 4.68601 19.1997 3.94315 18.4569C2.44285 16.9566 1.6 14.9217 1.6 12.8H0ZM9.6 3.2C7.05392 3.2 4.61212 4.21143 2.81177 6.01177C1.01143 7.81212 0 10.2539 0 12.8H1.6C1.6 10.6783 2.44285 8.64344 3.94315 7.14315C5.44344 5.64285 7.47827 4.8 9.6 4.8V3.2ZM12 12.8C11.3635 12.8 10.753 12.5471 10.3029 12.0971C9.85286 11.647 9.6 11.0365 9.6 10.4H8C8 11.4609 8.42143 12.4783 9.17157 13.2284C9.92172 13.9786 10.9391 14.4 12 14.4V12.8ZM14.4 10.4C14.4 11.0365 14.1471 11.647 13.6971 12.0971C13.247 12.5471 12.6365 12.8 12 12.8V14.4C13.0609 14.4 14.0783 13.9786 14.8284 13.2284C15.5786 12.4783 16 11.4609 16 10.4H14.4ZM12 8C12.6365 8 13.247 8.25286 13.6971 8.70294C14.1471 9.15303 14.4 9.76348 14.4 10.4H16C16 9.33913 15.5786 8.32172 14.8284 7.57157C14.0783 6.82143 13.0609 6.4 12 6.4V8ZM12 6.4C10.9391 6.4 9.92172 6.82143 9.17157 7.57157C8.42143 8.32172 8 9.33913 8 10.4H9.6C9.6 9.76348 9.85286 9.15303 10.3029 8.70294C10.753 8.25286 11.3635 8 12 8V6.4ZM12 19.2C13.7024 19.2 15.2672 18.608 16.5008 17.6208L15.4992 16.3728C14.5392 17.1408 13.3248 17.6 12 17.6V19.2ZM7.4992 17.6208C8.7312 18.608 10.2992 19.2 12 19.2V17.6C10.7277 17.6024 9.49292 17.1693 8.5008 16.3728L7.4992 17.6208Z" fill="white"/>
</g>
<defs>
<clipPath id="clip0_1027_340">
<rect width="24" height="24" fill="white"/>
</clipPath>
</defs>
</svg>
