<svg width="24" height="24" viewBox="0 0 24 24" fill="none" xmlns="http://www.w3.org/2000/svg">
<path fill-rule="evenodd" clip-rule="evenodd" d="M15 1.25H10.944C9.106 1.25 7.65 1.25 6.511 1.403C5.339 1.561 4.39 1.893 3.641 2.641C2.893 3.39 2.561 4.339 2.403 5.511C2.25 6.651 2.25 8.106 2.25 9.944V16C2.25002 16.8934 2.56894 17.7575 3.14934 18.4367C3.72974 19.1159 4.53351 19.5657 5.416 19.705C5.553 20.469 5.818 21.121 6.348 21.652C6.95 22.254 7.708 22.512 8.608 22.634C9.475 22.75 10.578 22.75 11.945 22.75H15.055C16.422 22.75 17.525 22.75 18.392 22.634C19.292 22.512 20.05 22.254 20.652 21.652C21.254 21.05 21.512 20.292 21.634 19.392C21.75 18.525 21.75 17.422 21.75 16.055V10.945C21.75 9.578 21.75 8.475 21.634 7.608C21.512 6.708 21.254 5.95 20.652 5.348C20.121 4.818 19.469 4.553 18.705 4.416C18.5657 3.53351 18.1159 2.72974 17.4367 2.14934C16.7575 1.56894 15.8934 1.25002 15 1.25ZM17.13 4.271C16.9779 3.827 16.6909 3.44166 16.3089 3.16893C15.927 2.89619 15.4693 2.74971 15 2.75H11C9.093 2.75 7.739 2.752 6.71 2.89C5.705 3.025 5.125 3.279 4.702 3.702C4.279 4.125 4.025 4.705 3.89 5.711C3.752 6.739 3.75 8.093 3.75 10V16C3.74971 16.4693 3.89619 16.927 4.16892 17.3089C4.44166 17.6908 4.827 17.9779 5.271 18.13C5.25 17.52 5.25 16.83 5.25 16.055V10.945C5.25 9.578 5.25 8.475 5.367 7.608C5.487 6.708 5.747 5.95 6.348 5.348C6.95 4.746 7.708 4.488 8.608 4.367C9.475 4.25 10.578 4.25 11.945 4.25H15.055C15.83 4.25 16.52 4.25 17.13 4.271ZM7.408 6.41C7.685 6.133 8.073 5.953 8.808 5.854C9.562 5.753 10.564 5.751 11.999 5.751H14.999C16.434 5.751 17.435 5.753 18.191 5.854C18.925 5.953 19.313 6.134 19.59 6.41C19.867 6.687 20.047 7.075 20.146 7.81C20.247 8.564 20.249 9.566 20.249 11.001V16.001C20.249 17.436 20.247 18.437 20.146 19.193C20.047 19.927 19.866 20.315 19.59 20.592C19.313 20.869 18.925 21.049 18.19 21.148C17.435 21.249 16.434 21.251 14.999 21.251H11.999C10.564 21.251 9.562 21.249 8.807 21.148C8.073 21.049 7.685 20.868 7.408 20.592C7.131 20.315 6.951 19.927 6.852 19.192C6.751 18.437 6.749 17.436 6.749 16.001V11.001C6.749 9.566 6.751 8.564 6.852 7.809C6.951 7.075 7.132 6.687 7.408 6.41Z" fill="#284243"/>
</svg>
