<svg width="20" height="20" viewBox="0 0 20 20" fill="none" xmlns="http://www.w3.org/2000/svg">
<g clip-path="url(#clip0_1021_14)">
<path d="M9.129 0L11.103 0.005C11.881 0.099 12.563 0.465 13.125 1.083C13.584 1.587 13.825 2.173 13.839 2.811H19.314C19.4968 2.81206 19.6718 2.88563 19.8004 3.01557C19.929 3.1455 20.0008 3.32117 20 3.504C20.0004 3.59448 19.983 3.68415 19.9487 3.7679C19.9144 3.85164 19.864 3.92782 19.8003 3.99208C19.7366 4.05634 19.6609 4.10742 19.5774 4.14241C19.494 4.1774 19.4045 4.19561 19.314 4.196L17.478 4.195V15.822C17.478 18.365 16.529 20 14.437 20H5.419C3.327 20 2.393 18.374 2.393 15.822V4.195H0.686001C0.503614 4.19421 0.328982 4.12113 0.200389 3.99178C0.0717962 3.86244 -0.000265707 3.68739 7.36243e-07 3.505C7.36243e-07 3.122 0.307001 2.813 0.686001 2.813H6.156C6.17 2.299 6.361 1.778 6.71 1.263C7.23 0.495 8.042 0.074 9.129 0ZM16.106 4.195H3.764V15.822C3.764 17.71 4.284 18.616 5.419 18.616H14.437C15.576 18.616 16.107 17.702 16.107 15.822L16.106 4.195ZM6.716 6.34C7.094 6.34 7.401 6.65 7.401 7.032V15.082C7.4014 15.1725 7.38397 15.2622 7.3497 15.3459C7.31544 15.4296 7.26502 15.5058 7.20132 15.5701C7.13762 15.6343 7.06189 15.6854 6.97844 15.7204C6.895 15.7554 6.80548 15.7736 6.715 15.774C6.53244 15.7729 6.35776 15.6995 6.22933 15.5697C6.10089 15.44 6.0292 15.2646 6.03 15.082V7.032C6.03 6.65 6.338 6.34 6.716 6.34ZM9.441 6.34C9.821 6.34 10.127 6.65 10.127 7.032V15.082C10.1274 15.1725 10.11 15.2622 10.0757 15.3459C10.0414 15.4296 9.99102 15.5058 9.92732 15.5701C9.86362 15.6343 9.78788 15.6854 9.70444 15.7204C9.621 15.7554 9.53148 15.7736 9.441 15.774C9.25844 15.7729 9.08376 15.6995 8.95533 15.5697C8.82689 15.44 8.7552 15.2646 8.756 15.082V7.032C8.756 6.65 9.063 6.34 9.441 6.34ZM12.169 6.34C12.547 6.34 12.854 6.65 12.854 7.032V15.082C12.8548 15.2646 12.7831 15.44 12.6547 15.5697C12.5262 15.6995 12.3516 15.7729 12.169 15.774C12.0785 15.7736 11.989 15.7554 11.9056 15.7204C11.8221 15.6854 11.7464 15.6343 11.6827 15.5701C11.619 15.5058 11.5686 15.4296 11.5343 15.3459C11.5 15.2622 11.4826 15.1725 11.483 15.082V7.032C11.4825 6.84935 11.5544 6.67393 11.683 6.54421C11.8116 6.4145 11.9863 6.34106 12.169 6.34ZM9.176 1.382C8.534 1.427 8.111 1.646 7.842 2.044C7.644 2.335 7.545 2.587 7.529 2.812L12.467 2.811C12.453 2.52 12.338 2.264 12.115 2.019C11.769 1.639 11.385 1.433 11.022 1.384L9.176 1.382Z" fill="#F90000"/>
</g>
<defs>
<clipPath id="clip0_1021_14">
<rect width="20" height="20" fill="white"/>
</clipPath>
</defs>
</svg>
