<svg width="19" height="21" viewBox="0 0 19 21" fill="none" xmlns="http://www.w3.org/2000/svg">
<path fill-rule="evenodd" clip-rule="evenodd" d="M14.084 4.22099C12.5407 3.41899 10.8403 3.01799 8.983 3.01799C7.19633 3.01799 5.53867 3.42399 4.01 4.23599C2.48133 5.04799 1.14467 6.22399 0 7.76399L0.588 8.22299C1.65133 6.75366 2.88933 5.64699 4.302 4.90299C5.71467 4.15899 7.275 3.78699 8.983 3.78699C10.7457 3.78766 12.3407 4.16199 13.768 4.90999C15.1953 5.65799 16.415 6.75233 17.427 8.19299L18.092 7.74699C16.9633 6.19833 15.6273 5.02299 14.084 4.22099ZM14.74 7.62399C13.1593 6.11999 11.2403 5.36799 8.983 5.36799C6.737 5.36799 4.829 6.11999 3.259 7.62399C1.689 9.12799 0.904 10.9523 0.904 13.097C0.904 13.7463 0.975667 14.4243 1.119 15.131C1.26233 15.839 1.484 16.589 1.784 17.381L2.473 17.071C2.189 16.2323 1.98467 15.4957 1.86 14.861C1.73533 14.2263 1.673 13.6363 1.673 13.091C1.673 11.157 2.38567 9.51333 3.811 8.15999C5.237 6.80799 6.96267 6.13199 8.988 6.13199C11.0393 6.13199 12.7777 6.80799 14.203 8.15999C15.6297 9.51266 16.343 11.1583 16.343 13.097C16.343 13.669 16.133 14.1563 15.713 14.559C15.2937 14.961 14.7817 15.162 14.177 15.162C13.555 15.162 13.0303 14.961 12.603 14.559C12.175 14.1563 11.961 13.669 11.961 13.097C11.961 12.3057 11.674 11.6353 11.1 11.086C10.5253 10.5367 9.83233 10.262 9.021 10.262C8.19633 10.262 7.49367 10.537 6.913 11.087C6.33233 11.6357 6.042 12.3057 6.042 13.097C6.042 14.8997 6.58333 16.4403 7.666 17.719C8.74867 18.9977 10.262 19.902 12.206 20.432L12.417 19.687C10.6057 19.1503 9.21867 18.3137 8.256 17.177C7.29267 16.0403 6.811 14.6803 6.811 13.097C6.811 12.525 7.024 12.0377 7.45 11.635C7.87533 11.233 8.399 11.032 9.021 11.032C9.62967 11.032 10.1437 11.233 10.563 11.635C10.983 12.0377 11.193 12.525 11.193 13.097C11.1923 13.889 11.4823 14.5583 12.063 15.105C12.6437 15.6517 13.3483 15.925 14.177 15.925C14.989 15.9257 15.681 15.6523 16.253 15.105C16.825 14.5577 17.111 13.8883 17.111 13.097C17.111 10.9523 16.3207 9.12799 14.74 7.62399ZM12.148 0.967993C11.134 0.701326 10.0917 0.567993 9.021 0.567993L9.02 0.568993C7.90333 0.568326 6.83467 0.70766 5.814 0.986993C4.79333 1.26633 3.778 1.69499 2.768 2.27299L3.026 2.95599C4.10733 2.39666 5.12433 1.98699 6.077 1.72699C7.02967 1.46699 8.011 1.33699 9.021 1.33699C10.0983 1.33699 11.1193 1.46533 12.084 1.72199C13.0487 1.97866 14.0353 2.39199 15.044 2.96199L15.368 2.24799C14.2353 1.66133 13.162 1.23466 12.148 0.967993ZM13.002 9.41499C11.9627 8.34699 10.6353 7.81299 9.02 7.81299L9.021 7.81199C7.48033 7.81266 6.17367 8.32499 5.101 9.34899C4.02833 10.373 3.492 11.6223 3.492 13.097C3.49333 14.445 3.74433 15.665 4.245 16.757C4.74567 17.849 5.58933 19.026 6.776 20.288L7.322 19.742C6.168 18.5253 5.36933 17.4317 4.926 16.461C4.482 15.4897 4.26 14.3687 4.26 13.098C4.26 11.856 4.723 10.793 5.649 9.90899C6.57433 9.02499 7.698 8.58299 9.02 8.58299C10.416 8.58299 11.5603 9.04233 12.453 9.96099C13.345 10.8803 13.791 12.0543 13.791 13.483H14.56C14.5607 11.839 14.0413 10.483 13.002 9.41499ZM8.998 15.025C9.26867 15.705 9.67067 16.295 10.204 16.795C10.7073 17.2783 11.285 17.646 11.937 17.898C12.589 18.15 13.269 18.276 13.977 18.276C14.2517 18.276 14.5197 18.251 14.781 18.201C15.0423 18.151 15.3017 18.085 15.559 18.003L15.404 17.316C15.1667 17.3647 14.9307 17.4087 14.696 17.448C14.4613 17.4873 14.2217 17.507 13.977 17.507C13.3683 17.5063 12.7867 17.3987 12.232 17.184C11.6773 16.9693 11.1833 16.664 10.75 16.268C10.2913 15.842 9.94533 15.3337 9.712 14.743C9.47867 14.1523 9.362 13.4753 9.362 12.712H8.592C8.592 13.574 8.72733 14.345 8.998 15.025Z" fill="#284243"/>
</svg>
