<svg width="27" height="27" viewBox="0 0 27 27" fill="none" xmlns="http://www.w3.org/2000/svg">
<path d="M12.3333 2.7334H10.1999C4.86661 2.7334 2.73328 4.86673 2.73328 10.2001V16.6001C2.73328 21.9334 4.86661 24.0667 10.1999 24.0667H16.5999C21.9333 24.0667 24.0666 21.9334 24.0666 16.6001V14.4667" stroke="white" stroke-width="1.5" stroke-linecap="round" stroke-linejoin="round"/>
<path d="M17.7094 3.82143L9.30402 12.2268C8.98402 12.5468 8.66402 13.1761 8.60002 13.6348L8.14135 16.8454C7.97068 18.0081 8.79202 18.8188 9.95468 18.6588L13.1654 18.2001C13.6134 18.1361 14.2427 17.8161 14.5734 17.4961L22.9787 9.09077C24.4294 7.6401 25.112 5.95477 22.9787 3.82143C20.8454 1.6881 19.16 2.37077 17.7094 3.82143V3.82143Z" stroke="white" stroke-width="1.5" stroke-miterlimit="10" stroke-linecap="round" stroke-linejoin="round"/>
<path d="M16.504 5.02673C16.8577 6.2827 17.528 7.4268 18.4506 8.34945C19.3733 9.27209 20.5174 9.94237 21.7734 10.2961" stroke="white" stroke-width="1.5" stroke-miterlimit="10" stroke-linecap="round" stroke-linejoin="round"/>
</svg>
