<svg width="90" height="90" viewBox="0 0 90 90" fill="none" xmlns="http://www.w3.org/2000/svg">
<path fill-rule="evenodd" clip-rule="evenodd" d="M64.2789 8.9025C60.8139 8.4375 56.4039 8.4375 50.8989 8.4375H38.4451C32.9439 8.4375 28.5301 8.4375 25.0651 8.9025C21.4764 9.3825 18.4839 10.4062 16.1101 12.7725C13.6351 15.24 12.6189 18.3787 12.1614 22.1625L12.1389 22.35L12.1501 23.0813C11.3409 23.6101 10.5882 24.2208 9.90387 24.9037C7.09887 27.7125 5.85387 31.2712 5.26137 35.6662C4.68762 39.9412 4.68762 45.3975 4.68762 52.29V54.3338C4.69137 60.4275 4.73637 65.4225 5.26137 69.3338C5.85387 73.7288 7.09887 77.2875 9.90387 80.0962C12.7126 82.9012 16.2714 84.1462 20.6664 84.7388C24.9414 85.3125 30.3976 85.3125 37.2901 85.3125H52.7101C59.6026 85.3125 65.0626 85.3125 69.3339 84.7388C73.7289 84.1462 77.2876 82.9012 80.0964 80.0962C82.9014 77.2875 84.1464 73.7288 84.7389 69.3338C85.3126 65.0588 85.3126 59.6025 85.3126 52.71V52.29C85.3126 45.3975 85.3126 39.9375 84.7389 35.6662C84.1464 31.2712 82.9014 27.7125 80.0964 24.9037C79.2326 24.0393 78.2593 23.2917 77.2014 22.68V22.3312L77.1826 22.1625C76.7251 18.3787 75.7126 15.24 73.2339 12.7725C70.8601 10.41 67.8714 9.3825 64.2789 8.9025ZM10.3164 55.65C10.3276 61.1813 10.3989 65.325 10.8376 68.5875C11.3439 72.3563 12.2964 74.5312 13.8826 76.1175C15.4689 77.7038 17.6439 78.6562 21.4164 79.1625C25.2714 79.68 30.3489 79.6875 37.5001 79.6875H52.5001C59.6514 79.6875 64.7326 79.68 68.5876 79.1625C71.4489 78.78 73.3914 78.1388 74.8576 77.1562L64.7814 68.085C63.3612 66.8065 61.549 66.048 59.6416 65.9335C57.7341 65.8191 55.8443 66.3555 54.2814 67.455L53.1676 68.2425C51.1812 69.6383 48.7659 70.2884 46.3472 70.0785C43.9285 69.8686 41.6614 68.8121 39.9451 67.095L23.8576 51.0075C22.8146 49.9647 21.4142 49.3574 19.9401 49.3087C18.466 49.2599 17.0285 49.7734 15.9189 50.745L10.3164 55.65ZM68.5426 63.9038L78.2476 72.6413C78.6451 71.5312 78.9451 70.2037 79.1626 68.5837C79.6801 64.7325 79.6876 59.6512 79.6876 52.5C79.6876 45.3488 79.6801 40.2712 79.1626 36.4125C78.6564 32.6437 77.7039 30.4688 76.1176 28.8825C74.5314 27.2963 72.3564 26.3438 68.5839 25.8375C64.7326 25.32 59.6514 25.3125 52.5001 25.3125H37.5001C30.3489 25.3125 25.2714 25.32 21.4126 25.8375C17.6439 26.3438 15.4689 27.2963 13.8826 28.8825C12.2964 30.4688 11.3439 32.6438 10.8376 36.4163C10.4289 39.4425 10.3389 43.2262 10.3201 48.1725L12.2176 46.5112C14.4015 44.6007 17.2299 43.5917 20.1299 43.6885C23.0299 43.7852 25.7847 44.9806 27.8364 47.0325L43.9239 63.12C44.7044 63.8992 45.7346 64.3782 46.8334 64.4729C47.9322 64.5675 49.0291 64.2717 49.9314 63.6375L51.0489 62.85C53.6535 61.0196 56.8022 60.1271 59.98 60.3185C63.1577 60.5099 66.1765 61.7739 68.5426 63.9038ZM20.0776 16.7625C19.1776 17.6587 18.5326 18.8287 18.1051 20.7112C18.9524 20.5277 19.8069 20.3789 20.6664 20.265C24.9414 19.6912 30.3976 19.6912 37.2901 19.6912H52.7101C59.6026 19.6912 65.0626 19.6912 69.3339 20.265C69.9751 20.3512 70.5976 20.4525 71.2089 20.5688C70.7776 18.7688 70.1401 17.6362 69.2664 16.7625C68.1114 15.6112 66.5026 14.88 63.5326 14.4825C60.4839 14.07 56.4489 14.0662 50.6926 14.0662H38.6514C32.8951 14.0662 28.8601 14.0738 25.8114 14.4788C22.8414 14.88 21.2326 15.6112 20.0776 16.7625Z" fill="#284243"/>
<path fill-rule="evenodd" clip-rule="evenodd" d="M65.625 30.9379C64.517 30.9379 63.4198 31.1561 62.3961 31.5801C61.3724 32.0042 60.4423 32.6257 59.6588 33.4092C58.8753 34.1926 58.2538 35.1228 57.8298 36.1465C57.4057 37.1702 57.1875 38.2673 57.1875 39.3754C57.1875 40.4834 57.4057 41.5806 57.8298 42.6043C58.2538 43.6279 58.8753 44.5581 59.6588 45.3416C60.4423 46.1251 61.3724 46.7466 62.3961 47.1706C63.4198 47.5946 64.517 47.8129 65.625 47.8129C67.8628 47.8129 70.0089 46.9239 71.5912 45.3416C73.1736 43.7592 74.0625 41.6131 74.0625 39.3754C74.0625 37.1376 73.1736 34.9915 71.5912 33.4092C70.0089 31.8268 67.8628 30.9379 65.625 30.9379ZM65.625 36.5629C64.8791 36.5629 64.1637 36.8592 63.6363 37.3866C63.1088 37.9141 62.8125 38.6294 62.8125 39.3754C62.8125 40.1213 63.1088 40.8367 63.6363 41.3641C64.1637 41.8915 64.8791 42.1879 65.625 42.1879C66.3709 42.1879 67.0863 41.8915 67.6137 41.3641C68.1412 40.8367 68.4375 40.1213 68.4375 39.3754C68.4375 38.6294 68.1412 37.9141 67.6137 37.3866C67.0863 36.8592 66.3709 36.5629 65.625 36.5629Z" fill="#284243"/>
</svg>
