<svg width="51" height="50" viewBox="0 0 51 50" fill="none" xmlns="http://www.w3.org/2000/svg">
<path d="M21.3333 22.9167V16.6667C21.3333 16.1141 21.1138 15.5842 20.7231 15.1935C20.3324 14.8028 19.8025 14.5833 19.25 14.5833H13C12.4474 14.5833 11.9175 14.8028 11.5268 15.1935C11.1361 15.5842 10.9166 16.1141 10.9166 16.6667V22.9167C10.9166 23.4692 11.1361 23.9991 11.5268 24.3898C11.9175 24.7805 12.4474 25 13 25H19.25C19.8025 25 20.3324 24.7805 20.7231 24.3898C21.1138 23.9991 21.3333 23.4692 21.3333 22.9167ZM21.3333 22.9167V27.0833C21.3333 29.2935 20.4553 31.4131 18.8925 32.9759C17.3297 34.5387 15.2101 35.4167 13 35.4167H10.9166M40.0833 22.9167V16.6667C40.0833 16.1141 39.8638 15.5842 39.4731 15.1935C39.0824 14.8028 38.5525 14.5833 38 14.5833H31.75C31.1974 14.5833 30.6675 14.8028 30.2768 15.1935C29.8861 15.5842 29.6666 16.1141 29.6666 16.6667V22.9167C29.6666 23.4692 29.8861 23.9991 30.2768 24.3898C30.6675 24.7805 31.1974 25 31.75 25H38C38.5525 25 39.0824 24.7805 39.4731 24.3898C39.8638 23.9991 40.0833 23.4692 40.0833 22.9167ZM40.0833 22.9167V27.0833C40.0833 29.2935 39.2053 31.4131 37.6425 32.9759C36.0797 34.5387 33.9601 35.4167 31.75 35.4167H29.6666" stroke="black" stroke-width="2" stroke-linecap="round" stroke-linejoin="round"/>
</svg>
