<svg width="24" height="24" viewBox="0 0 24 24" fill="none" xmlns="http://www.w3.org/2000/svg">
<path d="M5 3H11C11.7957 3 12.5587 3.31607 13.1213 3.87868C13.6839 4.44129 14 5.20435 14 6V10H13V6C13 5.46957 12.7893 4.96086 12.4142 4.58579C12.0391 4.21071 11.5304 4 11 4H5C4.46957 4 3.96086 4.21071 3.58579 4.58579C3.21071 4.96086 3 5.46957 3 6V19C3 19.5304 3.21071 20.0391 3.58579 20.4142C3.96086 20.7893 4.46957 21 5 21H11C11.5304 21 12.0391 20.7893 12.4142 20.4142C12.7893 20.0391 13 19.5304 13 19V15H14V19C14 19.7956 13.6839 20.5587 13.1213 21.1213C12.5587 21.6839 11.7957 22 11 22H5C4.20435 22 3.44129 21.6839 2.87868 21.1213C2.31607 20.5587 2 19.7956 2 19V6C2 5.20435 2.31607 4.44129 2.87868 3.87868C3.44129 3.31607 4.20435 3 5 3ZM8 12H19.25L16 8.75L16.66 8L21.16 12.5L16.66 17L16 16.25L19.25 13H8V12Z" fill="#FF2F2F"/>
</svg>
