<svg width="36" height="36" viewBox="0 0 36 36" fill="none" xmlns="http://www.w3.org/2000/svg">
<path d="M20 11C20 9.89543 19.1046 9 18 9C16.8954 9 16 9.89543 16 11C16 12.1046 16.8954 13 18 13C19.1046 13 20 12.1046 20 11Z" fill="#9EA2A6"/>
<path d="M20 18C20 16.8954 19.1046 16 18 16C16.8954 16 16 16.8954 16 18C16 19.1046 16.8954 20 18 20C19.1046 20 20 19.1046 20 18Z" fill="#9EA2A6"/>
<path d="M20 25C20 23.8954 19.1046 23 18 23C16.8954 23 16 23.8954 16 25C16 26.1046 16.8954 27 18 27C19.1046 27 20 26.1046 20 25Z" fill="#9EA2A6"/>
</svg>
