<svg width="136" height="136" viewBox="0 0 136 136" fill="none" xmlns="http://www.w3.org/2000/svg">
<g filter="url(#filter0_f_2019_269)">
<circle cx="68" cy="68" r="60" fill="url(#paint0_linear_2019_269)"/>
</g>
<path d="M64.1667 76.3333C64.1667 77.8905 62.8905 79.1667 61.3333 79.1667C59.7761 79.1667 58.5 77.8905 58.5 76.3333V59.6667C58.5 58.1095 59.7761 56.8333 61.3333 56.8333C62.8905 56.8333 64.1667 58.1095 64.1667 59.6667V76.3333ZM71.8333 76.3333V59.6667C71.8333 58.1095 73.1095 56.8333 74.6667 56.8333C76.2239 56.8333 77.5 58.1095 77.5 59.6667V76.3333C77.5 77.8905 76.2239 79.1667 74.6667 79.1667C73.1095 79.1667 71.8333 77.8905 71.8333 76.3333Z" fill="white" stroke="url(#paint1_linear_2019_269)"/>
<defs>
<filter id="filter0_f_2019_269" x="0" y="0" width="136" height="136" filterUnits="userSpaceOnUse" color-interpolation-filters="sRGB">
<feFlood flood-opacity="0" result="BackgroundImageFix"/>
<feBlend mode="normal" in="SourceGraphic" in2="BackgroundImageFix" result="shape"/>
<feGaussianBlur stdDeviation="4" result="effect1_foregroundBlur_2019_269"/>
</filter>
<linearGradient id="paint0_linear_2019_269" x1="68" y1="8" x2="68" y2="128" gradientUnits="userSpaceOnUse">
<stop stop-color="#DA0926"/>
<stop offset="1" stop-color="#820CC4"/>
</linearGradient>
<linearGradient id="paint1_linear_2019_269" x1="68" y1="56.3333" x2="68" y2="79.6667" gradientUnits="userSpaceOnUse">
<stop stop-color="#DA0926"/>
<stop offset="1" stop-color="#820CC4"/>
</linearGradient>
</defs>
</svg>
