<svg width="25" height="24" viewBox="0 0 25 24" fill="none" xmlns="http://www.w3.org/2000/svg">
<path d="M10.5 11V8C10.5 7.73478 10.3946 7.48043 10.2071 7.29289C10.0196 7.10536 9.76522 7 9.5 7H6.5C6.23478 7 5.98043 7.10536 5.79289 7.29289C5.60536 7.48043 5.5 7.73478 5.5 8V11C5.5 11.2652 5.60536 11.5196 5.79289 11.7071C5.98043 11.8946 6.23478 12 6.5 12H9.5C9.76522 12 10.0196 11.8946 10.2071 11.7071C10.3946 11.5196 10.5 11.2652 10.5 11ZM10.5 11V13C10.5 14.0609 10.0786 15.0783 9.32843 15.8284C8.57828 16.5786 7.56087 17 6.5 17H5.5M19.5 11V8C19.5 7.73478 19.3946 7.48043 19.2071 7.29289C19.0196 7.10536 18.7652 7 18.5 7H15.5C15.2348 7 14.9804 7.10536 14.7929 7.29289C14.6054 7.48043 14.5 7.73478 14.5 8V11C14.5 11.2652 14.6054 11.5196 14.7929 11.7071C14.9804 11.8946 15.2348 12 15.5 12H18.5C18.7652 12 19.0196 11.8946 19.2071 11.7071C19.3946 11.5196 19.5 11.2652 19.5 11ZM19.5 11V13C19.5 14.0609 19.0786 15.0783 18.3284 15.8284C17.5783 16.5786 16.5609 17 15.5 17H14.5" stroke="white" stroke-width="2" stroke-linecap="round" stroke-linejoin="round"/>
</svg>
