<svg width="36" height="36" viewBox="0 0 36 36" fill="none" xmlns="http://www.w3.org/2000/svg">
<path d="M16 9.99886C14.4087 9.99886 12.8826 10.631 11.7574 11.7562C10.6321 12.8814 10 14.4076 10 15.9989C10 17.5902 10.6321 19.1163 11.7574 20.2415C12.8826 21.3667 14.4087 21.9989 16 21.9989C17.5913 21.9989 19.1174 21.3667 20.2426 20.2415C21.3679 19.1163 22 17.5902 22 15.9989C22 14.4076 21.3679 12.8814 20.2426 11.7562C19.1174 10.631 17.5913 9.99886 16 9.99886ZM8 15.9989C8.00018 14.7257 8.30422 13.471 8.88684 12.339C9.46946 11.207 10.3138 10.2304 11.3498 9.49034C12.3858 8.7503 13.5834 8.26819 14.8432 8.08409C16.1029 7.89998 17.3884 8.0192 18.5928 8.43183C19.7973 8.84446 20.8858 9.53859 21.768 10.4565C22.6502 11.3745 23.3006 12.4897 23.6651 13.7095C24.0296 14.9294 24.0977 16.2186 23.8638 17.4701C23.6298 18.7215 23.1006 19.8991 22.32 20.9049L27.707 26.2919C27.8892 26.4805 27.99 26.7331 27.9877 26.9953C27.9854 27.2575 27.8802 27.5083 27.6948 27.6937C27.5094 27.8791 27.2586 27.9843 26.9964 27.9865C26.7342 27.9888 26.4816 27.888 26.293 27.7059L20.906 22.3189C19.7235 23.237 18.307 23.8048 16.8178 23.9578C15.3285 24.1109 13.8262 23.8429 12.4816 23.1845C11.1371 22.5261 10.0043 21.5036 9.21202 20.2333C8.41976 18.9631 7.99983 17.496 8 15.9989Z" fill="#9EA2A6"/>
</svg>
