<svg width="45" height="46" viewBox="0 0 45 46" fill="none" xmlns="http://www.w3.org/2000/svg">
<g clip-path="url(#clip0_2011_22)">
<path d="M23.67 1.1275C23.5416 0.934904 23.3676 0.776988 23.1635 0.667769C22.9594 0.558549 22.7315 0.501404 22.5 0.501404C22.2685 0.501404 22.0406 0.558549 21.8365 0.667769C21.6324 0.776988 21.4584 0.934904 21.33 1.1275L12.8925 13.7838C12.7516 13.9955 12.6707 14.2415 12.6586 14.4956C12.6464 14.7497 12.7034 15.0023 12.8235 15.2266C12.9435 15.4508 13.1222 15.6383 13.3404 15.7691C13.5585 15.8998 13.8081 15.9689 14.0625 15.9691H14.3381L8.65123 25.0675C8.51819 25.2804 8.44455 25.525 8.43797 25.7759C8.43138 26.0268 8.49208 26.275 8.61376 26.4945C8.73545 26.7141 8.91369 26.8971 9.12998 27.0245C9.34626 27.1519 9.59271 27.2191 9.84373 27.2191H10.3809L5.77405 36.4328C5.66661 36.6472 5.61579 36.8855 5.62641 37.1251C5.63703 37.3647 5.70874 37.5975 5.83472 37.8016C5.9607 38.0056 6.13676 38.1741 6.34619 38.2909C6.55561 38.4077 6.79143 38.4691 7.03123 38.4691H19.6875V45.5003H25.3125V38.4691H37.9687C38.2085 38.4691 38.4444 38.4077 38.6538 38.2909C38.8632 38.1741 39.0393 38.0056 39.1653 37.8016C39.2912 37.5975 39.3629 37.3647 39.3736 37.1251C39.3842 36.8855 39.3334 36.6472 39.2259 36.4328L34.6219 27.2191H35.1591C35.4101 27.2191 35.6565 27.1519 35.8728 27.0245C36.0891 26.8971 36.2673 26.7141 36.389 26.4945C36.5107 26.275 36.5714 26.0268 36.5648 25.7759C36.5582 25.525 36.4846 25.2804 36.3516 25.0675L30.6619 15.9691H30.9375C31.1919 15.9689 31.4414 15.8998 31.6596 15.7691C31.8778 15.6383 32.0564 15.4508 32.1765 15.2266C32.2966 15.0023 32.3536 14.7497 32.3414 14.4956C32.3292 14.2415 32.2484 13.9955 32.1075 13.7838L23.67 1.1275Z" fill="#E2817A"/>
</g>
<defs>
<clipPath id="clip0_2011_22">
<rect width="45" height="45" fill="white" transform="translate(0 0.5)"/>
</clipPath>
</defs>
</svg>
